<mxfile host="app.diagrams.net" modified="2021-06-04T15:44:28.332Z" agent="5.0 (Windows NT 10.0; Win64; x64) AppleWebKit/537.36 (KHTML, like Gecko) Chrome/88.0.4324.182 Safari/537.36" etag="I6VmqMYwgwVh4WM7Q5VM" version="14.7.5" type="github">
  <diagram id="0mdNDRs0fY-NOdMNi-CN" name="Page-1">
    <mxGraphModel dx="1241" dy="745" grid="1" gridSize="10" guides="1" tooltips="1" connect="1" arrows="1" fold="1" page="1" pageScale="1" pageWidth="3300" pageHeight="4681" math="0" shadow="0">
      <root>
        <mxCell id="0" />
        <mxCell id="1" parent="0" />
        <mxCell id="6bQOEI2JKZf2dVIBvP28-5" value="" style="edgeStyle=orthogonalEdgeStyle;rounded=0;orthogonalLoop=1;jettySize=auto;html=1;" edge="1" parent="1" source="6bQOEI2JKZf2dVIBvP28-1" target="6bQOEI2JKZf2dVIBvP28-2">
          <mxGeometry relative="1" as="geometry" />
        </mxCell>
        <mxCell id="6bQOEI2JKZf2dVIBvP28-1" value="FUNCTION bookcar_interface(user_data, data_clients, data_carlist, data_transactions)" style="shape=process;whiteSpace=wrap;html=1;backgroundOutline=1;" vertex="1" parent="1">
          <mxGeometry x="460" y="90" width="290" height="60" as="geometry" />
        </mxCell>
        <mxCell id="6bQOEI2JKZf2dVIBvP28-4" value="" style="edgeStyle=orthogonalEdgeStyle;rounded=0;orthogonalLoop=1;jettySize=auto;html=1;" edge="1" parent="1" source="6bQOEI2JKZf2dVIBvP28-2" target="6bQOEI2JKZf2dVIBvP28-3">
          <mxGeometry relative="1" as="geometry" />
        </mxCell>
        <mxCell id="6bQOEI2JKZf2dVIBvP28-2" value="title = user_data[2] + &quot;, you can book a car here&quot;" style="rounded=1;whiteSpace=wrap;html=1;" vertex="1" parent="1">
          <mxGeometry x="490" y="210" width="230" height="40" as="geometry" />
        </mxCell>
        <mxCell id="6bQOEI2JKZf2dVIBvP28-7" value="" style="edgeStyle=orthogonalEdgeStyle;rounded=0;orthogonalLoop=1;jettySize=auto;html=1;" edge="1" parent="1" source="6bQOEI2JKZf2dVIBvP28-3" target="6bQOEI2JKZf2dVIBvP28-6">
          <mxGeometry relative="1" as="geometry" />
        </mxCell>
        <mxCell id="6bQOEI2JKZf2dVIBvP28-3" value="DECLARE menu = [&quot;Book with Car ID&quot;, &quot;Return&quot;]" style="rounded=1;whiteSpace=wrap;html=1;" vertex="1" parent="1">
          <mxGeometry x="490" y="310" width="230" height="40" as="geometry" />
        </mxCell>
        <mxCell id="6bQOEI2JKZf2dVIBvP28-10" value="" style="edgeStyle=orthogonalEdgeStyle;rounded=0;orthogonalLoop=1;jettySize=auto;html=1;" edge="1" parent="1" source="6bQOEI2JKZf2dVIBvP28-6" target="6bQOEI2JKZf2dVIBvP28-9">
          <mxGeometry relative="1" as="geometry" />
        </mxCell>
        <mxCell id="6bQOEI2JKZf2dVIBvP28-6" value="default.print_title(title)" style="shape=process;whiteSpace=wrap;html=1;backgroundOutline=1;" vertex="1" parent="1">
          <mxGeometry x="485" y="400" width="240" height="50" as="geometry" />
        </mxCell>
        <mxCell id="6bQOEI2JKZf2dVIBvP28-12" value="" style="edgeStyle=orthogonalEdgeStyle;rounded=0;orthogonalLoop=1;jettySize=auto;html=1;" edge="1" parent="1" source="6bQOEI2JKZf2dVIBvP28-9" target="6bQOEI2JKZf2dVIBvP28-11">
          <mxGeometry relative="1" as="geometry" />
        </mxCell>
        <mxCell id="6bQOEI2JKZf2dVIBvP28-9" value="default.general_menu(menu)" style="shape=process;whiteSpace=wrap;html=1;backgroundOutline=1;" vertex="1" parent="1">
          <mxGeometry x="485" y="500" width="240" height="70" as="geometry" />
        </mxCell>
        <mxCell id="6bQOEI2JKZf2dVIBvP28-14" value="" style="edgeStyle=orthogonalEdgeStyle;rounded=0;orthogonalLoop=1;jettySize=auto;html=1;" edge="1" parent="1" source="6bQOEI2JKZf2dVIBvP28-11" target="6bQOEI2JKZf2dVIBvP28-13">
          <mxGeometry relative="1" as="geometry" />
        </mxCell>
        <mxCell id="6bQOEI2JKZf2dVIBvP28-11" value="PRINT(&quot;Please Select: &quot;)" style="rounded=1;whiteSpace=wrap;html=1;" vertex="1" parent="1">
          <mxGeometry x="490" y="630" width="230" height="40" as="geometry" />
        </mxCell>
        <mxCell id="6bQOEI2JKZf2dVIBvP28-16" value="" style="edgeStyle=orthogonalEdgeStyle;rounded=0;orthogonalLoop=1;jettySize=auto;html=1;" edge="1" parent="1" source="6bQOEI2JKZf2dVIBvP28-13" target="6bQOEI2JKZf2dVIBvP28-15">
          <mxGeometry relative="1" as="geometry" />
        </mxCell>
        <mxCell id="6bQOEI2JKZf2dVIBvP28-13" value="READ choice" style="shape=parallelogram;perimeter=parallelogramPerimeter;whiteSpace=wrap;html=1;fixedSize=1;" vertex="1" parent="1">
          <mxGeometry x="490" y="730" width="229" height="50" as="geometry" />
        </mxCell>
        <mxCell id="6bQOEI2JKZf2dVIBvP28-18" value="" style="edgeStyle=orthogonalEdgeStyle;rounded=0;orthogonalLoop=1;jettySize=auto;html=1;" edge="1" parent="1" source="6bQOEI2JKZf2dVIBvP28-15" target="6bQOEI2JKZf2dVIBvP28-17">
          <mxGeometry relative="1" as="geometry" />
        </mxCell>
        <mxCell id="6bQOEI2JKZf2dVIBvP28-20" style="edgeStyle=orthogonalEdgeStyle;rounded=0;orthogonalLoop=1;jettySize=auto;html=1;" edge="1" parent="1" source="6bQOEI2JKZf2dVIBvP28-15">
          <mxGeometry relative="1" as="geometry">
            <mxPoint x="605" y="368" as="targetPoint" />
            <Array as="points">
              <mxPoint x="420" y="900" />
              <mxPoint x="420" y="368" />
            </Array>
          </mxGeometry>
        </mxCell>
        <mxCell id="6bQOEI2JKZf2dVIBvP28-15" value="choice == &#39;1&#39; OR choice == &#39;2&#39;" style="rhombus;whiteSpace=wrap;html=1;" vertex="1" parent="1">
          <mxGeometry x="490" y="850" width="230" height="100" as="geometry" />
        </mxCell>
        <mxCell id="6bQOEI2JKZf2dVIBvP28-24" style="edgeStyle=orthogonalEdgeStyle;rounded=0;orthogonalLoop=1;jettySize=auto;html=1;entryX=0.5;entryY=0;entryDx=0;entryDy=0;" edge="1" parent="1" source="6bQOEI2JKZf2dVIBvP28-17" target="6bQOEI2JKZf2dVIBvP28-22">
          <mxGeometry relative="1" as="geometry" />
        </mxCell>
        <mxCell id="6bQOEI2JKZf2dVIBvP28-17" value="BREAK" style="rounded=1;whiteSpace=wrap;html=1;" vertex="1" parent="1">
          <mxGeometry x="533" y="1000" width="145" height="40" as="geometry" />
        </mxCell>
        <mxCell id="6bQOEI2JKZf2dVIBvP28-19" value="True" style="text;html=1;align=center;verticalAlign=middle;resizable=0;points=[];autosize=1;strokeColor=none;" vertex="1" parent="1">
          <mxGeometry x="600" y="950" width="40" height="20" as="geometry" />
        </mxCell>
        <mxCell id="6bQOEI2JKZf2dVIBvP28-21" value="False" style="text;html=1;align=center;verticalAlign=middle;resizable=0;points=[];autosize=1;strokeColor=none;" vertex="1" parent="1">
          <mxGeometry x="450" y="880" width="40" height="20" as="geometry" />
        </mxCell>
        <mxCell id="6bQOEI2JKZf2dVIBvP28-25" style="edgeStyle=orthogonalEdgeStyle;rounded=0;orthogonalLoop=1;jettySize=auto;html=1;entryX=0;entryY=0.5;entryDx=0;entryDy=0;" edge="1" parent="1" source="6bQOEI2JKZf2dVIBvP28-22" target="6bQOEI2JKZf2dVIBvP28-23">
          <mxGeometry relative="1" as="geometry" />
        </mxCell>
        <mxCell id="6bQOEI2JKZf2dVIBvP28-28" value="" style="edgeStyle=orthogonalEdgeStyle;rounded=0;orthogonalLoop=1;jettySize=auto;html=1;" edge="1" parent="1" source="6bQOEI2JKZf2dVIBvP28-22" target="6bQOEI2JKZf2dVIBvP28-27">
          <mxGeometry relative="1" as="geometry" />
        </mxCell>
        <mxCell id="6bQOEI2JKZf2dVIBvP28-22" value="choice == &#39;1&#39;" style="rhombus;whiteSpace=wrap;html=1;" vertex="1" parent="1">
          <mxGeometry x="415" y="1080" width="110" height="100" as="geometry" />
        </mxCell>
        <mxCell id="6bQOEI2JKZf2dVIBvP28-30" value="" style="edgeStyle=orthogonalEdgeStyle;rounded=0;orthogonalLoop=1;jettySize=auto;html=1;" edge="1" parent="1" source="6bQOEI2JKZf2dVIBvP28-23" target="6bQOEI2JKZf2dVIBvP28-29">
          <mxGeometry relative="1" as="geometry" />
        </mxCell>
        <mxCell id="6bQOEI2JKZf2dVIBvP28-23" value="choice == &#39;2&#39;" style="rhombus;whiteSpace=wrap;html=1;" vertex="1" parent="1">
          <mxGeometry x="690" y="1080" width="110" height="100" as="geometry" />
        </mxCell>
        <mxCell id="6bQOEI2JKZf2dVIBvP28-26" value="False" style="text;html=1;align=center;verticalAlign=middle;resizable=0;points=[];autosize=1;strokeColor=none;" vertex="1" parent="1">
          <mxGeometry x="525" y="1110" width="40" height="20" as="geometry" />
        </mxCell>
        <mxCell id="6bQOEI2JKZf2dVIBvP28-33" style="edgeStyle=orthogonalEdgeStyle;rounded=0;orthogonalLoop=1;jettySize=auto;html=1;" edge="1" parent="1">
          <mxGeometry relative="1" as="geometry">
            <mxPoint x="606" y="166" as="targetPoint" />
            <mxPoint x="321" y="1260" as="sourcePoint" />
            <Array as="points">
              <mxPoint x="266" y="1260" />
              <mxPoint x="266" y="166" />
            </Array>
          </mxGeometry>
        </mxCell>
        <mxCell id="6bQOEI2JKZf2dVIBvP28-27" value="bookcar_menu(user_data, data_clients, data_carlist, data_transactions)" style="shape=process;whiteSpace=wrap;html=1;backgroundOutline=1;" vertex="1" parent="1">
          <mxGeometry x="325" y="1230" width="290" height="60" as="geometry" />
        </mxCell>
        <mxCell id="6bQOEI2JKZf2dVIBvP28-29" value="RETURN" style="ellipse;whiteSpace=wrap;html=1;" vertex="1" parent="1">
          <mxGeometry x="700" y="1220" width="90" height="80" as="geometry" />
        </mxCell>
        <mxCell id="6bQOEI2JKZf2dVIBvP28-31" value="True" style="text;html=1;align=center;verticalAlign=middle;resizable=0;points=[];autosize=1;strokeColor=none;" vertex="1" parent="1">
          <mxGeometry x="470" y="1180" width="40" height="20" as="geometry" />
        </mxCell>
        <mxCell id="6bQOEI2JKZf2dVIBvP28-32" value="True" style="text;html=1;align=center;verticalAlign=middle;resizable=0;points=[];autosize=1;strokeColor=none;" vertex="1" parent="1">
          <mxGeometry x="748" y="1180" width="40" height="20" as="geometry" />
        </mxCell>
      </root>
    </mxGraphModel>
  </diagram>
</mxfile>
